<?xml version="1.0" encoding="UTF-8"?>
<svg id="Capa_2" data-name="Capa 2" xmlns="http://www.w3.org/2000/svg" viewBox="0 0 124.03 37.82">
  <defs>
    <style>
      .cls-1 {
        fill: #e87200;
      }

      .cls-2 {
        fill: #1226aa;
      }
    </style>
  </defs>
  <g id="Capa_1-2" data-name="Capa 1">
    <g>
      <path class="cls-1" d="M4.53,29.47c.23,1.2.84,4.43,5.05,4.43,3.27,0,4.56-1.72,4.56-3.2,0-1.94-1.62-2.36-5.89-3.4-2.3-.58-7.41-1.85-7.41-6.96,0-2.53,1.65-6.47,8.45-6.47,4.53,0,8.68,1.78,8.87,7.02l-4.69.19c-.19-1.2-.55-3.37-4.24-3.37-1.39,0-3.92.42-3.92,2.3,0,1.49,1.46,2.14,5.18,3.01,3.53.84,8.32,1.97,8.32,7.67,0,2.82-1.78,5.18-3.79,6.09-2.07.97-4.4,1.04-5.47,1.04-2.49,0-8.64-.23-9.55-7.93l4.53-.42Z"/>
      <path class="cls-1" d="M23.5,25.04c.74-2.69,2.27-4.76,7.25-4.76,7.06,0,7.09,3.3,7.09,6.31,0,1.04-.06,5.57-.03,6.51.1,2.2.32,2.95.97,4.34h-4.37c-.1-.23-.19-.45-.32-.94l-.26-.91c-.87.87-2.49,2.23-5.21,2.23-3.37,0-5.57-2.04-5.57-4.95,0-4.11,3.79-4.86,6.12-5.31,2.49-.45,3.43-.71,4.31-1.07v-.45c0-1.1,0-2.36-3.04-2.36-2.17,0-2.62,1.26-2.91,2.1l-4.01-.74ZM33.47,29.38c-.45.16-.84.29-1.88.52-.23.03-1.33.26-1.52.32-.81.16-2.59.62-2.59,2.17,0,.94.74,2.3,2.46,2.3,1.04,0,1.91-.45,2.59-1.04.94-.81.94-1.88.94-3.4v-.87Z"/>
      <path class="cls-1" d="M54.52,28.86c0-2.75,0-5.18-2.72-5.18-1.39,0-2.65.74-3.2,1.97-.45.97-.49,2.82-.49,4.18v7.61h-4.43v-16.77h4.14v2.46h.06c1.65-2.27,3.75-2.85,5.47-2.85.74,0,2.46.13,3.85,1.23,1.78,1.36,1.72,3.85,1.75,5.5v10.42h-4.44v-8.58Z"/>
      <path class="cls-1" d="M72.84,24.2h-3.01v6.77c0,2.4,0,3.17,1.23,3.17.58,0,1.1-.16,1.65-.39l.13-.03.39,3.43c-1.46.62-3.04.68-3.5.68-1.36,0-3.11-.45-3.76-1.72-.55-1.04-.61-2.04-.61-4.6v-7.32h-2.04v-3.53h2.04v-3.33l4.47-2.62v5.96h3.01v3.53Z"/>
      <path class="cls-1" d="M76.92,25.04c.74-2.69,2.27-4.76,7.25-4.76,7.06,0,7.09,3.3,7.09,6.31,0,1.04-.06,5.57-.03,6.51.1,2.2.32,2.95.97,4.34h-4.37c-.1-.23-.19-.45-.32-.94l-.26-.91c-.87.87-2.49,2.23-5.21,2.23-3.37,0-5.57-2.04-5.57-4.95,0-4.11,3.79-4.86,6.12-5.31,2.49-.45,3.43-.71,4.31-1.07v-.45c0-1.1,0-2.36-3.04-2.36-2.17,0-2.62,1.26-2.91,2.1l-4.01-.74ZM86.89,29.38c-.45.16-.84.29-1.88.52-.23.03-1.33.26-1.52.32-.81.16-2.59.62-2.59,2.17,0,.94.74,2.3,2.46,2.3,1.04,0,1.91-.45,2.59-1.04.94-.81.94-1.88.94-3.4v-.87Z"/>
      <path class="cls-1" d="M97.71,20.67v-1.29c0-1.97,0-5.5,5.18-5.5.87,0,2.3.13,3.69.55l-.58,3.11c-.81-.19-1.75-.26-2.04-.26-1.81,0-1.81,1.23-1.81,2.2v1.2h3.34v3.53h-3.34v13.24h-4.43v-13.24h-2.46v-3.53h2.46Z"/>
      <path class="cls-1" d="M123.8,32.84c-.36,1.04-1.75,4.98-7.32,4.98-1.46,0-5.34-.19-7.12-4.01-.74-1.62-1-3.27-1-4.66,0-4.53,2.4-8.87,7.7-8.87,6.31,0,8.06,5.08,7.96,10.03h-11.14c.06,2.01,1.13,4.11,3.66,4.11,2.07,0,2.59-1.55,2.82-2.33l4.44.74ZM119.62,27.59c-.1-3.66-2.62-3.92-3.3-3.92-2.1,0-3.37,1.72-3.33,3.92h6.64ZM116.06,13.87h4.95l-4.34,4.73h-2.82l2.2-4.73Z"/>
    </g>
    <g>
      <path class="cls-2" d="M30.37,7.62h2.49v.94h-3.51V.35h1.02v7.27Z"/>
      <path class="cls-2" d="M39.16,6.49l-.94,2.06h-1.1l3.92-8.55,3.92,8.55h-1.1l-.94-2.06h-3.76ZM41.04,2.24l-1.46,3.32h2.92l-1.46-3.32Z"/>
      <path class="cls-2" d="M50.02.35h1.7c.63,0,1.22.08,1.78.25s1.04.42,1.46.76c.42.34.75.76,1,1.27.24.51.36,1.1.36,1.78s-.12,1.31-.36,1.83c-.24.52-.57.95-.98,1.29-.42.34-.91.6-1.47.77-.57.17-1.17.26-1.82.26h-1.66V.35ZM51.04,7.62h.36c.52,0,1.02-.05,1.49-.16.47-.1.88-.28,1.24-.53.36-.25.64-.57.85-.98.21-.41.32-.91.32-1.5s-.1-1.09-.32-1.5c-.21-.41-.49-.73-.85-.98-.35-.25-.77-.42-1.24-.53-.47-.1-.97-.16-1.49-.16h-.36v6.33Z"/>
      <path class="cls-2" d="M66.9,8.55h-1.24l-2.41-3.47h-.42v3.47h-1.02V.35h1.24c.36,0,.73.02,1.11.05.38.04.73.14,1.06.33.35.2.61.48.8.84.18.35.28.73.28,1.12,0,.3-.05.58-.14.84-.09.26-.23.49-.4.7-.17.2-.38.37-.62.51-.24.13-.51.22-.81.26l2.59,3.57ZM62.82,4.23h.33c.26,0,.52-.02.78-.05s.49-.1.7-.21c.21-.11.38-.26.51-.46s.2-.46.2-.78-.07-.57-.21-.77c-.14-.19-.31-.34-.53-.45-.21-.1-.45-.17-.72-.21s-.52-.05-.78-.05h-.27v2.97Z"/>
      <path class="cls-2" d="M73.16,8.55h-1.02V.35h1.02v8.2Z"/>
      <path class="cls-2" d="M80.17,7.62h2.49v.94h-3.51V.35h1.02v7.27Z"/>
      <path class="cls-2" d="M88.82,7.62h2.49v.94h-3.51V.35h1.02v7.27Z"/>
      <path class="cls-2" d="M96.45.35h4.41v.94h-3.38v2.3h3.29v.94h-3.29v3.1h3.38v.94h-4.41V.35Z"/>
      <path class="cls-2" d="M111.68,8.55h-1.24l-2.41-3.47h-.42v3.47h-1.02V.35h1.24c.36,0,.73.02,1.11.05.38.04.73.14,1.06.33.35.2.61.48.8.84.18.35.28.73.28,1.12,0,.3-.05.58-.14.84-.09.26-.23.49-.4.7-.17.2-.38.37-.62.51-.24.13-.51.22-.81.26l2.59,3.57ZM107.6,4.23h.33c.26,0,.52-.02.78-.05s.49-.1.7-.21c.21-.11.38-.26.51-.46s.2-.46.2-.78-.07-.57-.21-.77c-.14-.19-.31-.34-.53-.45-.21-.1-.45-.17-.72-.21s-.52-.05-.78-.05h-.27v2.97Z"/>
      <path class="cls-2" d="M118.11,6.49l-.94,2.06h-1.1l3.92-8.55,3.92,8.55h-1.1l-.94-2.06h-3.76ZM119.99,2.24l-1.46,3.32h2.92l-1.46-3.32Z"/>
    </g>
  </g>
</svg>