<?xml version="1.0" encoding="UTF-8"?>
<svg id="Capa_2" data-name="Capa 2" xmlns="http://www.w3.org/2000/svg" viewBox="0 0 85.03 59.24">
  <defs>
    <style>
      .cls-1 {
        fill: #e87200;
      }

      .cls-2 {
        fill: #1226aa;
      }
    </style>
  </defs>
  <g id="Capa_1-2" data-name="Capa 1">
    <g>
      <path class="cls-1" d="M56.34,44.55s-14.61,6.65-22.04,10.15c-1.7.8-3.4,1.6-5.1,2.4,0-5.95-.02-11.74-.02-17.71,0-.02,0-.04,0-.06v-.11c.02-.23-.12-.45-.33-.55L0,25.3v20.84l28,12.96h0c.33.16.73.19.97.09l28.62-13.25c.26-.12.41-.44.41-.72v-23.63l-.66-.31-1,.45c0,7.56,0,15.26,0,22.81"/>
      <path class="cls-2" d="M85.03,13.27L56.68.11c-.21-.12-.47-.15-.75-.02-7.43,3.5-14.19,6.51-21.62,10.02-2.13,1.01-4.26,2.01-6.4,3.02-.26.12-.41.44-.41.72v20.02c0,.67.69.98,1.25.72l28.6-13.29,27.69,12.86V13.27ZM29.15,32.55V14.36c7.27-3.42,13.92-6.39,21.21-9.82,2.01-.95,3.97-1.88,5.98-2.82v18.22c-7.32,3.46-14.15,6.45-21.48,9.92-1.9.9-3.8,1.8-5.71,2.7Z"/>
    </g>
  </g>
</svg>